<svg xmlns="http://www.w3.org/2000/svg" xmlns:svg="http://www.w3.org/2000/svg" id="svg8" width="64pt" height="64pt" version="1.1" viewBox="0 0 22.578 22.578"><metadata id="metadata5"/><g id="layer1" transform="translate(0,-274.42223)"><circle id="path4506" cx="11.289" cy="285.711" r="10.087" style="opacity:1;fill:none;fill-opacity:1;stroke:#fcffff;stroke-width:1.41111111;stroke-miterlimit:4;stroke-dasharray:none;stroke-opacity:1"/><path id="path4508" d="m 11.752989,275.91106 c 1.335087,0.12324 2.924751,1.85149 2.924751,1.85149 l -3.974536,0.61795 2.474281,1.21224 -3.6524857,0.47394 -1.5342821,2.61829 -2.04226,-0.24611 0.7374297,-1.49295 -1.1526033,-1.70377 -1.5106826,2.40981 c 0,0 -0.6657971,-2.14893 -0.3437341,-2.51135 2.2415982,-2.52244 4.6181173,-3.54854 8.0741221,-3.22954 z" style="fill:#fff;fill-opacity:1;stroke:none;stroke-width:.26458332;stroke-linecap:butt;stroke-linejoin:miter;stroke-miterlimit:4;stroke-dasharray:none;stroke-opacity:1"/><path id="path4510" d="m 16.227777,285.00557 -2.469444,-0.70556 -1.763889,3.52778 3.527778,3.88056 1.058333,-3.88056 3.527778,-2.11667 -2.822222,-2.11666 z" style="fill:#fff;fill-opacity:1;stroke:none;stroke-width:.26458332px;stroke-linecap:butt;stroke-linejoin:miter;stroke-opacity:1"/><path id="path4556" d="m 1.411111,285.71112 c 0.094074,-0.65852 1.7638888,-1.41111 1.7638888,-1.41111 l 1.0583332,1.41111 -0.7055554,1.41111 3.5277774,1.41111 -1.411111,1.41111 2.1166667,1.05834 -1.411111,1.05833 -1.4111111,-0.70556 c 0,0 -0.4044303,1.77247 -0.7055556,1.41112 -1.7638887,-2.11667 -3.1749997,-4.58612 -2.822222,-7.05556 z" style="fill:#fff;fill-opacity:1;stroke:none;stroke-width:.26458332px;stroke-linecap:butt;stroke-linejoin:miter;stroke-opacity:1"/><path id="path4558" d="m 10.583333,289.94446 1.411111,-0.35278 -0.352777,1.41111 z" style="fill:#fff;fill-opacity:1;stroke:none;stroke-width:.26458332px;stroke-linecap:butt;stroke-linejoin:miter;stroke-opacity:1"/><path id="path4575" d="m 9.1722217,291.35556 1.7638883,0.35278 -0.352777,1.76389 -1.0583336,-1.05833 z" style="fill:#fff;stroke:none;stroke-width:.26458332px;stroke-linecap:butt;stroke-linejoin:miter;stroke-opacity:1;fill-opacity:1"/><path id="path4577" d="m 13.052777,291.00279 1.411111,0.35277 v 1.05834 l -1.763889,-0.35278 z" style="fill:#fff;stroke:none;stroke-width:.26458332px;stroke-linecap:butt;stroke-linejoin:miter;stroke-opacity:1;fill-opacity:1"/><path id="path4579" d="M 10.93611,288.88612 H 9.1722217 l -1.0583334,-0.70556 -0.7055553,0.70556 1.7638887,0.70556 1.4111113,-0.35278 z" style="fill:#fff;stroke:none;stroke-width:.26458332px;stroke-linecap:butt;stroke-linejoin:miter;stroke-opacity:1;fill-opacity:1"/></g></svg>