<svg xmlns="http://www.w3.org/2000/svg" xmlns:svg="http://www.w3.org/2000/svg" id="svg8" width="64pt" height="64pt" version="1.1" viewBox="0 0 22.578 22.578"><metadata id="metadata2"/><path id="rect931" style="fill:#a1a1a1;fill-opacity:1;stroke-width:2" d="M 23.123047 27.929688 L 27.734375 49.587891 L 30.488281 46.833984 L 27.367188 32.173828 L 23.123047 27.929688 z M 32.804688 57.716797 L 30.050781 60.470703 L 32.789062 73.326172 L 35.984375 72.646484 L 32.804688 57.716797 z" transform="scale(0.26458593)"/><path id="path1329" style="fill:#a1a1a1;fill-opacity:1;stroke:none;stroke-width:1px;stroke-linecap:butt;stroke-linejoin:miter;stroke-opacity:1" d="M 64.611328 9.8105469 C 64.611328 9.8105469 51.364368 16.020984 44.269531 17.519531 C 39.023383 18.627605 28.207031 18.388672 28.207031 18.388672 L 28.607422 20.216797 L 42.855469 34.464844 L 63.263672 14.054688 L 64.611328 9.8105469 z M 63.902344 26.613281 L 50.767578 39.751953 C 58.256637 37.894459 70.070312 31.970703 70.070312 31.970703 L 63.902344 26.613281 z M 32.310547 37.121094 L 32.939453 39.986328 C 32.939453 39.986328 33.991292 40.075501 35.367188 40.175781 L 32.310547 37.121094 z" transform="scale(0.26458593)"/><g id="g1236" style="stroke-width:1.41112496;stroke-miterlimit:4;stroke-dasharray:none;stroke:#fff;stroke-opacity:1"><path id="path4" fill="none" stroke="#fff" stroke-width="2.117" d="M 4.1030435,18.101516 18.574859,3.6297071" style="stroke:#fff;stroke-opacity:1;stroke-width:1.41112496;stroke-miterlimit:4;stroke-dasharray:none"/><path id="path6" fill="none" stroke="#fff" stroke-width="2.117" d="M 4.1030435,3.6294529 18.574859,18.101262" style="stroke:#fff;stroke-opacity:1;stroke-width:1.41112496;stroke-miterlimit:4;stroke-dasharray:none"/></g></svg>