<svg xmlns="http://www.w3.org/2000/svg" width="64pt" height="64pt" version="1.1" viewBox="0 0 22.578 22.578"><metadata/><g fill="#fff" transform="translate(0 -274.42)"><path d="m16 10.666c-2.6667 0-5.334 2.6673-5.334 5.334v53.334c0 2.6667 2.6673 5.332 5.334 5.332h53.334c2.6667 0 5.332-2.6653 5.332-5.332v-42.668c0-1.3333 0.001303-1.3327-1.332-2.666l-12-12c-1.3333-1.3333-1.3346-1.334-2.668-1.334h-42.666zm14.666 5.334h24c2.216 0 4 1.784 4 4v13.334c0 2.216-1.784 4-4 4h-24c-2.216 0-4-1.784-4-4v-13.334c0-2.216 1.784-4 4-4zm-5.332 32h34.666c2.216 0 4 1.784 4 4v13.334c0 2.216-1.784 4-4 4h-34.666c-2.216 0-4-1.784-4-4v-13.334c0-2.216 1.784-4 4-4z" transform="matrix(.26458 0 0 .26458 0 274.42)"/><rect width="1.411" height="2.822" x="12.7" y="280.07" rx=".353" ry="1.058" style="paint-order:normal"/></g></svg>