<svg xmlns="http://www.w3.org/2000/svg" xmlns:svg="http://www.w3.org/2000/svg" id="svg38" width="64pt" height="64pt" version="1.1" viewBox="0 0 22.578 22.578"><metadata id="metadata2"/><path style="fill:none;stroke:#fff;stroke-width:1.31279826;stroke-linecap:butt;stroke-linejoin:miter;stroke-miterlimit:4;stroke-dasharray:none;stroke-opacity:1" id="path917" d="M 6.6267962,6.9626052 3.8350184,8.643778 v 9.377131 l 7.5017046,3.750854 7.501704,-3.750854 V 8.643778 L 16.410492,7.0429471"/><path style="fill:none;stroke:#fff;stroke-width:1.31287535;stroke-linecap:butt;stroke-linejoin:miter;stroke-miterlimit:4;stroke-dasharray:none;stroke-opacity:1" id="path919" d="m 3.8350184,8.643778 7.5017046,3.750853 7.501704,-3.750853"/><path style="fill:none;stroke:#fff;stroke-width:1.31279826;stroke-linecap:butt;stroke-linejoin:miter;stroke-miterlimit:4;stroke-dasharray:none;stroke-opacity:1" id="path921" d="m 11.336723,12.394631 v 9.37713"/><path id="path967" d="m 4.9990731,11.039885 0.9632015,0.468433 v 0.92748 L 4.9990731,11.958753 Z" style="fill:#fff;fill-opacity:1;stroke:none;stroke-width:.81006366;stroke-linecap:butt;stroke-linejoin:miter;stroke-miterlimit:4;stroke-dasharray:none;stroke-opacity:1"/><path style="fill:#fff;fill-opacity:1;stroke:none;stroke-width:.81006366;stroke-linecap:butt;stroke-linejoin:miter;stroke-miterlimit:4;stroke-dasharray:none;stroke-opacity:1" id="path977" d="m 8.5374626,12.522917 1.7228244,0.832672 v 0.92748 L 8.5374626,13.441786 Z"/><path id="path979" d="m 8.4568977,15.831341 1.7228253,0.902143 v 1.57125 L 8.4568977,17.393981 Z" style="fill:#fff;fill-opacity:1;stroke:none;stroke-width:.81006366;stroke-linecap:butt;stroke-linejoin:miter;stroke-miterlimit:4;stroke-dasharray:none;stroke-opacity:1"/><path id="path981" d="m 4.8861456,14.562893 0.9519756,0.467286 V 14.31767 l 1.3202154,0.618392 v 0.721797 l 0.5362514,0.28845 V 16.93643 L 4.8861456,15.499616 Z" style="fill:#fff;fill-opacity:1;stroke:none;stroke-width:.81006366;stroke-linecap:butt;stroke-linejoin:miter;stroke-miterlimit:4;stroke-dasharray:none;stroke-opacity:1"/><path id="path985" d="m 6.2404437,12.735604 1.7228252,0.832672 v 0.927479 L 6.2404437,13.654473 Z" style="fill:#fff;fill-opacity:1;stroke:none;stroke-width:.81006366;stroke-linecap:butt;stroke-linejoin:miter;stroke-miterlimit:4;stroke-dasharray:none;stroke-opacity:1"/><path style="fill:#fff;fill-opacity:1;stroke:none;stroke-width:.81006366;stroke-linecap:butt;stroke-linejoin:miter;stroke-miterlimit:4;stroke-dasharray:none;stroke-opacity:1" id="path987" d="m 6.6232802,17.145313 1.4108843,0.705059 v 0.92748 l -1.4108843,-0.71367 z"/><path style="fill:#fff;fill-opacity:1;stroke:none;stroke-width:.81006366;stroke-linecap:butt;stroke-linejoin:miter;stroke-miterlimit:4;stroke-dasharray:none;stroke-opacity:1" id="path1000" d="M 13.562902,12.900302 12.5997,13.368734 v 0.927481 l 0.963202,-0.477045 z"/><path id="path1002" d="m 17.44387,11.074702 -1.722825,0.832672 v 0.92748 l 1.722825,-0.841282 z" style="fill:#fff;fill-opacity:1;stroke:none;stroke-width:.81006366;stroke-linecap:butt;stroke-linejoin:miter;stroke-miterlimit:4;stroke-dasharray:none;stroke-opacity:1"/><path style="fill:#fff;fill-opacity:1;stroke:none;stroke-width:.81006366;stroke-linecap:butt;stroke-linejoin:miter;stroke-miterlimit:4;stroke-dasharray:none;stroke-opacity:1" id="path1004" d="m 17.504382,14.162551 -1.722825,0.902143 v 1.57125 l 1.722825,-0.910753 z"/><path style="fill:#fff;fill-opacity:1;stroke:none;stroke-width:.81006366;stroke-linecap:butt;stroke-linejoin:miter;stroke-miterlimit:4;stroke-dasharray:none;stroke-opacity:1" id="path1006" d="m 15.159701,15.841793 -0.951976,0.467287 v -0.71251 l -1.320215,0.618393 v 0.721797 l -0.536252,0.28845 v 0.990121 l 2.808443,-1.436814 z"/><path style="fill:#fff;fill-opacity:1;stroke:none;stroke-width:.81006366;stroke-linecap:butt;stroke-linejoin:miter;stroke-miterlimit:4;stroke-dasharray:none;stroke-opacity:1" id="path1008" d="m 15.77053,13.312673 -1.722825,0.832672 v 0.92748 l 1.722825,-0.841282 z"/><path id="path1010" d="m 15.768687,17.301283 -1.410884,0.70506 v 0.92748 l 1.410884,-0.71367 z" style="fill:#fff;fill-opacity:1;stroke:none;stroke-width:.81006366;stroke-linecap:butt;stroke-linejoin:miter;stroke-miterlimit:4;stroke-dasharray:none;stroke-opacity:1"/><path style="fill:none;stroke:#fff;stroke-width:.88195312;stroke-linecap:butt;stroke-linejoin:miter;stroke-miterlimit:4;stroke-dasharray:none;stroke-opacity:1" id="path1048" d="M 7.3913948,9.0219563 V 6.6406832 c 0,0 -0.182632,-0.2927582 -0.264586,-0.826831 -0.08195,-0.5340728 0.03307,-4.2995215 0.03307,-4.2995215 0,0 1.426226,1.9187967 1.492189,2.9092141 0.06596,0.9904174 -0.529172,2.4143468 -0.529172,2.4143468"/><path id="path1056" d="M 9.9715167,10.455774 V 8.0745012 c 0,0 -0.1826323,-0.2927582 -0.2645868,-0.826831 -0.08195,-0.5340728 0.03307,-4.2995215 0.03307,-4.2995215 0,0 1.4262271,1.9187967 1.4921901,2.9092141 0.06596,0.9904174 -0.529172,2.4143468 -0.529172,2.4143468" style="fill:none;stroke:#fff;stroke-width:.88195312;stroke-linecap:butt;stroke-linejoin:miter;stroke-miterlimit:4;stroke-dasharray:none;stroke-opacity:1"/><path style="fill:none;stroke:#fff;stroke-width:.88195312;stroke-linecap:butt;stroke-linejoin:miter;stroke-miterlimit:4;stroke-dasharray:none;stroke-opacity:1" id="path1058" d="M 15.067583,9.2629078 V 6.8816347 c 0,0 -0.182632,-0.2927582 -0.264586,-0.826831 -0.08195,-0.5340728 0.03307,-4.2995214 0.03307,-4.2995214 0,0 1.426226,1.9187966 1.492189,2.909214 0.06596,0.9904174 -0.529172,2.4143468 -0.529172,2.4143468"/><path style="fill:none;stroke:#fff;stroke-width:.88195312;stroke-linecap:butt;stroke-linejoin:miter;stroke-miterlimit:4;stroke-dasharray:none;stroke-opacity:1" id="path1078" d="M 12.518155,8.7525022 V 6.3712291 c 0,0 -0.182632,-0.2927582 -0.264586,-0.826831 -0.08195,-0.5340728 0.03307,-4.2995215 0.03307,-4.2995215 0,0 1.426226,1.9187967 1.492189,2.9092141 0.06596,0.9904174 -0.529172,2.4143468 -0.529172,2.4143468"/></svg>